<svg id="visual" viewBox="0 0 960 540" width="960" height="540" xmlns="http://www.w3.org/2000/svg" xmlns:xlink="http://www.w3.org/1999/xlink" version="1.1"><rect x="0" y="0" width="960" height="540" fill="#00060c"></rect><defs><linearGradient id="grad1_0" x1="43.8%" y1="0%" x2="100%" y2="100%"><stop offset="14.444444444444446%" stop-color="#96c99c" stop-opacity="1"></stop><stop offset="85.55555555555554%" stop-color="#96c99c" stop-opacity="1"></stop></linearGradient></defs><defs><linearGradient id="grad1_1" x1="43.8%" y1="0%" x2="100%" y2="100%"><stop offset="14.444444444444446%" stop-color="#96c99c" stop-opacity="1"></stop><stop offset="85.55555555555554%" stop-color="#71ac90" stop-opacity="1"></stop></linearGradient></defs><defs><linearGradient id="grad1_2" x1="43.8%" y1="0%" x2="100%" y2="100%"><stop offset="14.444444444444446%" stop-color="#538f81" stop-opacity="1"></stop><stop offset="85.55555555555554%" stop-color="#71ac90" stop-opacity="1"></stop></linearGradient></defs><defs><linearGradient id="grad1_3" x1="43.8%" y1="0%" x2="100%" y2="100%"><stop offset="14.444444444444446%" stop-color="#538f81" stop-opacity="1"></stop><stop offset="85.55555555555554%" stop-color="#3c726f" stop-opacity="1"></stop></linearGradient></defs><defs><linearGradient id="grad1_4" x1="43.8%" y1="0%" x2="100%" y2="100%"><stop offset="14.444444444444446%" stop-color="#2c555a" stop-opacity="1"></stop><stop offset="85.55555555555554%" stop-color="#3c726f" stop-opacity="1"></stop></linearGradient></defs><defs><linearGradient id="grad1_5" x1="43.8%" y1="0%" x2="100%" y2="100%"><stop offset="14.444444444444446%" stop-color="#2c555a" stop-opacity="1"></stop><stop offset="85.55555555555554%" stop-color="#203a42" stop-opacity="1"></stop></linearGradient></defs><defs><linearGradient id="grad1_6" x1="43.8%" y1="0%" x2="100%" y2="100%"><stop offset="14.444444444444446%" stop-color="#152228" stop-opacity="1"></stop><stop offset="85.55555555555554%" stop-color="#203a42" stop-opacity="1"></stop></linearGradient></defs><defs><linearGradient id="grad1_7" x1="43.8%" y1="0%" x2="100%" y2="100%"><stop offset="14.444444444444446%" stop-color="#152228" stop-opacity="1"></stop><stop offset="85.55555555555554%" stop-color="#00060c" stop-opacity="1"></stop></linearGradient></defs><defs><linearGradient id="grad2_0" x1="0%" y1="0%" x2="56.3%" y2="100%"><stop offset="14.444444444444446%" stop-color="#96c99c" stop-opacity="1"></stop><stop offset="85.55555555555554%" stop-color="#96c99c" stop-opacity="1"></stop></linearGradient></defs><defs><linearGradient id="grad2_1" x1="0%" y1="0%" x2="56.3%" y2="100%"><stop offset="14.444444444444446%" stop-color="#71ac90" stop-opacity="1"></stop><stop offset="85.55555555555554%" stop-color="#96c99c" stop-opacity="1"></stop></linearGradient></defs><defs><linearGradient id="grad2_2" x1="0%" y1="0%" x2="56.3%" y2="100%"><stop offset="14.444444444444446%" stop-color="#71ac90" stop-opacity="1"></stop><stop offset="85.55555555555554%" stop-color="#538f81" stop-opacity="1"></stop></linearGradient></defs><defs><linearGradient id="grad2_3" x1="0%" y1="0%" x2="56.3%" y2="100%"><stop offset="14.444444444444446%" stop-color="#3c726f" stop-opacity="1"></stop><stop offset="85.55555555555554%" stop-color="#538f81" stop-opacity="1"></stop></linearGradient></defs><defs><linearGradient id="grad2_4" x1="0%" y1="0%" x2="56.3%" y2="100%"><stop offset="14.444444444444446%" stop-color="#3c726f" stop-opacity="1"></stop><stop offset="85.55555555555554%" stop-color="#2c555a" stop-opacity="1"></stop></linearGradient></defs><defs><linearGradient id="grad2_5" x1="0%" y1="0%" x2="56.3%" y2="100%"><stop offset="14.444444444444446%" stop-color="#203a42" stop-opacity="1"></stop><stop offset="85.55555555555554%" stop-color="#2c555a" stop-opacity="1"></stop></linearGradient></defs><defs><linearGradient id="grad2_6" x1="0%" y1="0%" x2="56.3%" y2="100%"><stop offset="14.444444444444446%" stop-color="#203a42" stop-opacity="1"></stop><stop offset="85.55555555555554%" stop-color="#152228" stop-opacity="1"></stop></linearGradient></defs><defs><linearGradient id="grad2_7" x1="0%" y1="0%" x2="56.3%" y2="100%"><stop offset="14.444444444444446%" stop-color="#00060c" stop-opacity="1"></stop><stop offset="85.55555555555554%" stop-color="#152228" stop-opacity="1"></stop></linearGradient></defs><g transform="translate(960, 0)"><path d="M0 297C-35.3 275.9 -70.7 254.8 -96.4 232.8C-122.2 210.8 -138.3 187.8 -170.4 170.4C-202.5 153 -250.6 141.1 -274.4 113.7C-298.2 86.2 -297.6 43.1 -297 0L0 0Z" fill="#0e161b"></path><path d="M0 259.9C-30.9 241.4 -61.9 223 -84.4 203.7C-106.9 184.4 -121 164.3 -149.1 149.1C-177.2 133.9 -219.3 123.5 -240.1 99.4C-260.9 75.4 -260.4 37.7 -259.9 0L0 0Z" fill="#1a2e35"></path><path d="M0 222.8C-26.5 206.9 -53 191.1 -72.3 174.6C-91.6 158.1 -103.7 140.9 -127.8 127.8C-151.9 114.7 -188 105.9 -205.8 85.2C-223.6 64.6 -223.2 32.3 -222.7 0L0 0Z" fill="#26484e"></path><path d="M0 185.6C-22.1 172.5 -44.2 159.3 -60.3 145.5C-76.4 131.7 -86.4 117.4 -106.5 106.5C-126.6 95.6 -156.6 88.2 -171.5 71C-186.3 53.9 -186 26.9 -185.6 0L0 0Z" fill="#336365"></path><path d="M0 148.5C-17.7 138 -35.3 127.4 -48.2 116.4C-61.1 105.4 -69.1 93.9 -85.2 85.2C-101.3 76.5 -125.3 70.6 -137.2 56.8C-149.1 43.1 -148.8 21.5 -148.5 0L0 0Z" fill="#468079"></path><path d="M0 111.4C-13.3 103.5 -26.5 95.6 -36.2 87.3C-45.8 79 -51.9 70.4 -63.9 63.9C-75.9 57.4 -94 52.9 -102.9 42.6C-111.8 32.3 -111.6 16.2 -111.4 0L0 0Z" fill="#619d89"></path><path d="M0 74.3C-8.8 69 -17.7 63.7 -24.1 58.2C-30.5 52.7 -34.6 47 -42.6 42.6C-50.6 38.2 -62.7 35.3 -68.6 28.4C-74.5 21.5 -74.4 10.8 -74.2 0L0 0Z" fill="#83bb96"></path><path d="M0 37.1C-4.4 34.5 -8.8 31.9 -12.1 29.1C-15.3 26.3 -17.3 23.5 -21.3 21.3C-25.3 19.1 -31.3 17.6 -34.3 14.2C-37.3 10.8 -37.2 5.4 -37.1 0L0 0Z" fill="#96c99c"></path></g><g transform="translate(0, 540)"><path d="M0 -297C36.6 -285.6 73.3 -274.3 107.5 -259.6C141.8 -245 173.6 -227.1 202.9 -202.9C232.3 -178.8 259.1 -148.5 274.4 -113.7C289.7 -78.8 293.3 -39.4 297 0L0 0Z" fill="#0e161b"></path><path d="M0 -259.9C32.1 -249.9 64.1 -240 94.1 -227.2C124.1 -214.3 151.9 -198.7 177.6 -177.6C203.2 -156.5 226.7 -129.9 240.1 -99.4C253.4 -69 256.7 -34.5 259.9 0L0 0Z" fill="#1a2e35"></path><path d="M0 -222.7C27.5 -214.2 55 -205.7 80.7 -194.7C106.3 -183.7 130.2 -170.3 152.2 -152.2C174.2 -134.1 194.3 -111.4 205.8 -85.2C217.2 -59.1 220 -29.6 222.8 0L0 0Z" fill="#26484e"></path><path d="M0 -185.6C22.9 -178.5 45.8 -171.4 67.2 -162.3C88.6 -153.1 108.5 -141.9 126.8 -126.8C145.2 -111.8 162 -92.8 171.5 -71C181 -49.3 183.3 -24.6 185.6 0L0 0Z" fill="#336365"></path><path d="M0 -148.5C18.3 -142.8 36.6 -137.1 53.8 -129.8C70.9 -122.5 86.8 -113.5 101.5 -101.5C116.1 -89.4 129.6 -74.3 137.2 -56.8C144.8 -39.4 146.7 -19.7 148.5 0L0 0Z" fill="#468079"></path><path d="M0 -111.4C13.7 -107.1 27.5 -102.8 40.3 -97.4C53.2 -91.9 65.1 -85.1 76.1 -76.1C87.1 -67.1 97.2 -55.7 102.9 -42.6C108.6 -29.6 110 -14.8 111.4 0L0 0Z" fill="#619d89"></path><path d="M0 -74.2C9.2 -71.4 18.3 -68.6 26.9 -64.9C35.4 -61.2 43.4 -56.8 50.7 -50.7C58.1 -44.7 64.8 -37.1 68.6 -28.4C72.4 -19.7 73.3 -9.9 74.3 0L0 0Z" fill="#83bb96"></path><path d="M0 -37.1C4.6 -35.7 9.2 -34.3 13.4 -32.5C17.7 -30.6 21.7 -28.4 25.4 -25.4C29 -22.4 32.4 -18.6 34.3 -14.2C36.2 -9.9 36.7 -4.9 37.1 0L0 0Z" fill="#96c99c"></path></g></svg>